<svg width="100" height="100" viewBox="0 0 100 100" fill="none" xmlns="http://www.w3.org/2000/svg">
<rect width="36.1587" height="36.1587" rx="18.0794" transform="matrix(-1 0 0 1 94.5884 4)" fill="#F06252" fill-opacity="0.65"/>
<path d="M79.5514 51.91C81.5241 51.91 81.5241 48.9515 79.5514 48.9515C77.5786 48.9515 77.5786 51.91 79.5514 51.91Z" fill="white"/>
<path d="M64.7574 51.91C66.7302 51.91 66.7302 48.9515 64.7574 48.9515C62.7846 48.9515 62.7846 51.91 64.7574 51.91Z" fill="white"/>
<path d="M49.9664 51.91C51.9392 51.91 51.9392 48.9515 49.9664 48.9515C47.9936 48.9515 47.9936 51.91 49.9664 51.91Z" fill="white"/>
<path d="M79.5514 37.1192C81.5241 37.1192 81.5241 34.1608 79.5514 34.1608C77.5786 34.1608 77.5786 37.1192 79.5514 37.1192Z" fill="white"/>
<path d="M64.7574 37.1192C66.7302 37.1192 66.7302 34.1608 64.7574 34.1608C62.7846 34.1608 62.7846 37.1192 64.7574 37.1192Z" fill="white"/>
<path d="M49.9664 37.1192C51.9392 37.1192 51.9392 34.1608 49.9664 34.1608C47.9936 34.1608 47.9936 37.1192 49.9664 37.1192Z" fill="white"/>
<path d="M79.5514 22.3255C81.5241 22.3255 81.5241 19.3671 79.5514 19.3671C77.5786 19.3671 77.5786 22.3255 79.5514 22.3255Z" fill="white"/>
<path d="M64.7574 22.3255C66.7302 22.3255 66.7302 19.3671 64.7574 19.3671C62.7846 19.3671 62.7846 22.3255 64.7574 22.3255Z" fill="white"/>
<path d="M49.9664 22.3255C51.9392 22.3255 51.9392 19.3671 49.9664 19.3671C47.9936 19.3671 47.9936 22.3255 49.9664 22.3255Z" fill="white"/>
<rect width="36.1587" height="36.1587" rx="18.0794" transform="matrix(-1 0 0 1 51.1978 60.0464)" fill="#5C4596" fill-opacity="0.5"/>
<path fill-rule="evenodd" clip-rule="evenodd" d="M47.3789 77.8823H76.358L79.1287 72.5877L76.358 67.2903H47.3789V77.8823Z" fill="#FFD772"/>
<path fill-rule="evenodd" clip-rule="evenodd" d="M47.3789 77.8815V67.2895V66.8836C47.3789 66.6025 47.1489 66.3754 46.8679 66.3754H35.4643C35.1832 66.3754 34.9561 66.6024 34.9561 66.8836V78.2875C34.9561 78.5658 35.1804 78.7957 35.4585 78.7985H35.4642H46.8678H46.8735C47.1516 78.7956 47.3788 78.5657 47.3788 78.2875V77.8815H47.3789Z" fill="#F9F7F8"/>
<path fill-rule="evenodd" clip-rule="evenodd" d="M35.4643 60.4556H46.8679C47.1489 60.4556 47.3789 60.2257 47.3789 59.9474V59.5415V48.9466V48.5434C47.3789 48.2624 47.1489 48.0325 46.8679 48.0325H35.4643C35.1832 48.0325 34.9561 48.2624 34.9561 48.5434V59.9474C34.9561 60.2257 35.1832 60.4556 35.4643 60.4556V60.4556Z" fill="#F9F7F8"/>
<path fill-rule="evenodd" clip-rule="evenodd" d="M47.3789 48.9435V59.5384H76.358L79.1287 54.241L76.358 48.9435H47.3789Z" fill="#FFDD91"/>
<path fill-rule="evenodd" clip-rule="evenodd" d="M47.3789 41.1945H76.358L79.1287 35.8999L76.358 30.6024H47.3789V41.1945Z" fill="#FFDD91"/>
<path fill-rule="evenodd" clip-rule="evenodd" d="M47.3789 41.1941V30.602V30.1961C47.3789 29.915 47.1489 29.6879 46.8679 29.6879H35.4643C35.1832 29.6879 34.9561 29.9149 34.9561 30.1961V41.6C34.9561 41.8811 35.1831 42.111 35.4643 42.111H46.8679C47.1489 42.111 47.3789 41.8811 47.3789 41.6V41.1941Z" fill="#F9F7F8"/>
<path fill-rule="evenodd" clip-rule="evenodd" d="M43.7751 30.602V41.1941V41.6C43.7751 41.8811 43.5452 42.111 43.2642 42.111H46.8695C47.1505 42.111 47.3805 41.8811 47.3805 41.6V41.1941V30.602V30.1961C47.3805 29.915 47.1505 29.6879 46.8695 29.6879H43.2642C43.5452 29.6879 43.7751 29.9149 43.7751 30.1961V30.602Z" fill="#DDDAEC"/>
<path fill-rule="evenodd" clip-rule="evenodd" d="M46.8695 48.0308H43.2642C43.5452 48.0308 43.7751 48.2607 43.7751 48.5417V48.9449V59.5398V59.9457C43.7751 60.2239 43.5452 60.4539 43.2642 60.4539H46.8695C47.1505 60.4539 47.3805 60.2239 47.3805 59.9457V59.5398V48.9449V48.5417C47.3805 48.2608 47.1505 48.0308 46.8695 48.0308V48.0308Z" fill="#DDDAEC"/>
<path fill-rule="evenodd" clip-rule="evenodd" d="M46.8695 66.3754H43.2642C43.5452 66.3754 43.7751 66.6024 43.7751 66.8836V67.2895V77.8815V78.2874C43.7751 78.5657 43.5481 78.7956 43.2698 78.7984H46.8695H46.8751C47.1533 78.7955 47.3805 78.5656 47.3805 78.2874V77.8815V67.2895V66.8836C47.3805 66.6024 47.1505 66.3754 46.8695 66.3754Z" fill="#DDDAEC"/>
<path fill-rule="evenodd" clip-rule="evenodd" d="M71.8491 30.6024C72.5077 32.4193 72.8768 34.4435 72.8768 36.5784C72.8768 38.1966 72.6667 39.7495 72.2778 41.1945H76.3572L79.128 35.8999L76.3572 30.6025H71.8491V30.6024Z" fill="#E5384F"/>
<path fill-rule="evenodd" clip-rule="evenodd" d="M71.8491 48.9435C72.5077 50.7604 72.8768 52.7846 72.8768 54.9222C72.8768 56.5376 72.6667 58.0905 72.2778 59.5383H76.3572L79.128 54.2409L76.3572 48.9435H71.8491Z" fill="#60B7FF"/>
<path fill-rule="evenodd" clip-rule="evenodd" d="M71.8491 67.2903C72.5077 69.1072 72.8768 71.1314 72.8768 73.2663C72.8768 74.8816 72.6667 76.4373 72.2778 77.8824H76.3572L79.128 72.5878L76.3572 67.2904H71.8491V67.2903Z" fill="#FBBA58"/>
<path d="M35.4646 42.8528H46.8683C47.4425 42.8528 47.9264 42.4638 48.0734 41.9358H76.3583C76.6341 41.9358 76.8871 41.7827 77.0151 41.5384L79.7858 36.2438C79.8985 36.0286 79.8985 35.772 79.7858 35.5567L77.0151 30.2592C76.8873 30.0148 76.6342 29.8616 76.3583 29.8616H64.0548C63.6454 29.8616 63.3137 30.1934 63.3137 30.6027C63.3137 31.012 63.6454 31.3438 64.0548 31.3438H75.9097L78.2927 35.9001L75.9098 40.4536H48.1204V31.3437H60.5885C60.9979 31.3437 61.3296 31.0119 61.3296 30.6026C61.3296 30.1933 60.9979 29.8615 60.5885 29.8615H48.0733C47.926 29.3351 47.4422 28.9474 46.8683 28.9474H35.4646C34.7758 28.9474 34.2153 29.5078 34.2153 30.1967V41.6007C34.2153 42.2911 34.7758 42.8528 35.4646 42.8528ZM35.6975 30.4296H46.6382V41.3706H35.6975V30.4296Z" fill="#857D7D"/>
<path d="M77.0151 48.602C76.8873 48.3576 76.6342 48.2044 76.3583 48.2044H48.0728C47.9247 47.6779 47.4415 47.2903 46.8683 47.2903H35.4646C34.7758 47.2903 34.2153 47.852 34.2153 48.5424V59.9463C34.2153 60.6351 34.7757 61.1956 35.4646 61.1956H46.8683C47.4422 61.1956 47.9259 60.8079 48.0732 60.2815H76.3583C76.6342 60.2815 76.8872 60.1283 77.0151 59.8839L79.7858 54.5864C79.8985 54.3713 79.8985 54.1146 79.7858 53.8995L77.0151 48.602ZM46.6382 59.7135H35.6975V48.7726H46.6382V59.7135ZM75.9096 58.7994H48.1204V49.6867H75.9096L78.2927 54.243L75.9096 58.7994Z" fill="#857D7D"/>
<path d="M51.4423 34.8778H56.0128C56.4221 34.8778 56.7539 34.546 56.7539 34.1367C56.7539 33.7274 56.4221 33.3956 56.0128 33.3956H51.4423C51.033 33.3956 50.7012 33.7274 50.7012 34.1367C50.7012 34.546 51.033 34.8778 51.4423 34.8778Z" fill="#857D7D"/>
<path d="M51.4423 38.5192H60.7338C61.1432 38.5192 61.4749 38.1874 61.4749 37.7781C61.4749 37.3688 61.1432 37.037 60.7338 37.037H51.4423C51.033 37.037 50.7012 37.3688 50.7012 37.7781C50.7012 38.1874 51.033 38.5192 51.4423 38.5192V38.5192Z" fill="#857D7D"/>
<path d="M51.4423 53.1004H56.0128C56.4221 53.1004 56.7539 52.7686 56.7539 52.3593C56.7539 51.95 56.4221 51.6182 56.0128 51.6182H51.4423C51.033 51.6182 50.7012 51.95 50.7012 52.3593C50.7012 52.7686 51.033 53.1004 51.4423 53.1004Z" fill="#857D7D"/>
<path d="M60.7338 55.2611H51.4423C51.033 55.2611 50.7012 55.5929 50.7012 56.0022C50.7012 56.4115 51.033 56.7433 51.4423 56.7433H60.7338C61.1432 56.7433 61.4749 56.4115 61.4749 56.0022C61.4749 55.5929 61.1432 55.2611 60.7338 55.2611Z" fill="#857D7D"/>
<path d="M51.4423 71.5596H56.0128C56.4221 71.5596 56.7539 71.2278 56.7539 70.8185C56.7539 70.4092 56.4221 70.0774 56.0128 70.0774H51.4423C51.033 70.0774 50.7012 70.4092 50.7012 70.8185C50.7012 71.2278 51.033 71.5596 51.4423 71.5596Z" fill="#857D7D"/>
<path d="M51.4423 75.201H60.7338C61.1432 75.201 61.4749 74.8691 61.4749 74.4599C61.4749 74.0506 61.1432 73.7188 60.7338 73.7188H51.4423C51.033 73.7188 50.7012 74.0506 50.7012 74.4599C50.7012 74.8691 51.033 75.201 51.4423 75.201V75.201Z" fill="#857D7D"/>
<path d="M77.0151 66.9464C76.8872 66.702 76.6342 66.5488 76.3583 66.5488H64.0548C63.6454 66.5488 63.3137 66.8806 63.3137 67.2899C63.3137 67.6992 63.6454 68.031 64.0548 68.031H75.9097L78.2927 72.5872L75.9098 77.1409H48.1204V68.0311H60.5885C60.9979 68.0311 61.3296 67.6993 61.3296 67.29C61.3296 66.8807 60.9979 66.5489 60.5885 66.5489H48.0733C47.926 66.0225 47.4423 65.6348 46.8684 65.6348H35.4646C34.7758 65.6348 34.2153 66.1952 34.2153 66.8841V78.288C34.2153 78.9784 34.7757 79.5401 35.4646 79.5401H46.8683C47.4425 79.5401 47.9264 79.1511 48.0734 78.6231H76.3583C76.6341 78.6231 76.8871 78.4699 77.0151 78.2257L79.7858 72.931C79.8985 72.7158 79.8985 72.4591 79.7858 72.2439L77.0151 66.9464ZM46.6382 78.0578H35.6975V67.1168H46.6382V78.0578Z" fill="#857D7D"/>
<path fill-rule="evenodd" clip-rule="evenodd" d="M44.7474 33.3356C45.1143 33.7484 45.0772 34.3805 44.6644 34.7474L39.5 39.338L37.3356 37.4141C36.9229 37.0472 36.8857 36.4151 37.2526 36.0023C37.6195 35.5895 38.2516 35.5524 38.6644 35.9193L39.5 36.6621L43.3356 33.2526C43.7484 32.8857 44.3805 32.9229 44.7474 33.3356Z" fill="#857D7D"/>
<rect width="18.0794" height="18.0794" rx="9.03968" transform="matrix(-1 0 0 1 24.0796 62.7584)" fill="#5C4596" fill-opacity="0.5"/>
</svg>
